<?xml version="1.0" standalone="no"?>
<!DOCTYPE svg PUBLIC "-//W3C//DTD SVG 20010904//EN"
 "http://www.w3.org/TR/2001/REC-SVG-20010904/DTD/svg10.dtd">
<svg version="1.0" xmlns="http://www.w3.org/2000/svg"
 width="700.000000pt" height="700.000000pt" viewBox="0 0 700.000000 700.000000"
 preserveAspectRatio="xMidYMid meet">
<metadata>
Created by potrace 1.14, written by Peter Selinger 2001-2017
</metadata>
<g transform="translate(0.000000,700.000000) scale(0.100000,-0.100000)"
fill="#000000" stroke="none">
<path d="M3339 6996 c-2 -2 -29 -6 -59 -10 -113 -12 -148 -18 -267 -46 -235
-56 -410 -134 -703 -310 -276 -167 -440 -245 -673 -321 -112 -37 -310 -90
-382 -103 -16 -3 -41 -7 -55 -10 -14 -2 -59 -10 -100 -16 -41 -6 -86 -13 -99
-15 -13 -2 -58 -7 -100 -11 -42 -4 -89 -8 -106 -10 -51 -5 -355 -17 -453 -18
l-93 0 4 -1021 c2 -561 7 -1048 10 -1082 6 -57 31 -229 43 -298 66 -380 264
-901 478 -1257 160 -267 389 -579 561 -764 5 -6 51 -56 102 -111 89 -97 323
-330 373 -373 14 -12 60 -53 103 -92 67 -61 186 -160 306 -256 19 -15 46 -37
60 -48 58 -47 351 -254 360 -254 5 0 11 -3 13 -8 3 -6 259 -181 282 -192 6 -3
38 -23 71 -45 33 -21 163 -101 289 -177 199 -120 231 -136 250 -126 178 95
623 379 951 606 64 45 318 233 325 241 3 3 39 33 80 66 281 222 607 535 865
831 343 392 637 878 802 1324 84 227 161 504 187 675 7 43 25 173 31 220 15
112 19 390 19 1225 l1 915 -95 1 c-340 6 -600 25 -795 59 -403 70 -772 205
-1093 400 -313 190 -478 268 -697 331 -187 54 -338 75 -581 80 -116 2 -213 2
-215 0z m431 -446 c258 -36 471 -116 729 -276 217 -135 412 -235 611 -314 212
-85 583 -185 795 -215 22 -3 49 -8 60 -10 11 -2 47 -7 79 -11 33 -3 68 -7 78
-9 23 -5 207 -18 230 -17 9 0 18 -7 20 -16 2 -9 3 -348 2 -752 -1 -653 -5
-819 -19 -910 -2 -14 -7 -49 -10 -78 -33 -304 -186 -767 -365 -1106 -127 -243
-331 -550 -471 -711 -14 -16 -59 -68 -100 -115 -194 -224 -489 -511 -714 -695
-26 -22 -60 -50 -74 -62 -111 -96 -391 -299 -626 -455 -144 -95 -432 -272
-455 -280 -18 -6 -233 124 -495 297 -191 127 -304 204 -315 215 -3 3 -41 32
-85 65 -44 33 -82 62 -85 65 -3 3 -23 18 -45 35 -22 16 -45 34 -51 40 -6 5
-22 19 -35 30 -320 266 -623 563 -851 835 -450 536 -763 1192 -854 1790 -3 25
-8 52 -9 60 -4 19 -16 149 -21 215 -7 93 -7 1515 0 1522 7 7 3 7 134 17 51 4
101 9 112 11 10 2 43 6 72 9 29 4 69 9 88 11 19 3 51 8 70 10 19 3 64 12 100
20 36 7 81 17 100 20 77 13 281 68 395 106 292 99 545 221 810 391 153 99 396
206 525 232 14 3 36 8 50 11 56 13 140 25 215 31 44 4 81 8 83 9 7 6 253 -6
322 -15z"/>
<path d="M4928 5105 c-4 -4 -81 -13 -115 -14 -20 -1 -42 -24 -188 -196 -23
-27 -145 -171 -270 -320 -312 -369 -329 -389 -335 -395 -3 -3 -53 -61 -110
-130 -57 -69 -107 -127 -110 -130 -3 -3 -64 -75 -135 -160 -72 -85 -132 -157
-135 -160 -3 -3 -53 -61 -110 -130 -58 -69 -107 -127 -110 -130 -3 -3 -80 -93
-170 -200 -91 -107 -175 -206 -186 -220 -12 -14 -33 -38 -46 -54 l-24 -29
-145 207 c-79 114 -175 252 -214 306 -38 55 -120 171 -181 257 l-111 158 -86
16 -86 15 -98 -70 c-54 -38 -101 -74 -105 -80 -3 -5 -12 -47 -18 -92 l-12 -82
178 -254 c98 -139 187 -266 199 -283 11 -16 118 -170 238 -341 258 -368 248
-359 418 -370 99 -6 107 -5 154 19 33 17 71 50 111 99 34 40 70 83 80 94 11
12 37 43 59 70 22 26 69 82 105 124 57 67 288 341 345 409 11 13 25 29 30 35
6 6 46 54 90 106 44 52 90 106 102 120 11 14 101 120 198 235 98 116 196 233
220 260 23 28 73 86 110 130 37 44 87 103 110 130 24 28 108 127 186 220 79
94 146 172 149 175 3 3 41 48 85 100 43 52 103 122 132 156 29 33 51 63 49 65
-2 2 -6 42 -9 87 -4 57 -10 88 -20 95 -26 21 -120 101 -140 120 -18 18 -72 39
-79 32z"/>
</g>
</svg>
